<svg xmlns="http://www.w3.org/2000/svg" xmlns:xlink="http://www.w3.org/1999/xlink" width="500" zoomAndPan="magnify" viewBox="0 0 375 374.999991" height="500" preserveAspectRatio="xMidYMid meet" version="1.0"><defs><clipPath id="d7a218436e"><path d="M 65.53125 57.035156 L 309.46875 57.035156 L 309.46875 318 L 65.53125 318 Z M 65.53125 57.035156 " clip-rule="nonzero"/></clipPath><clipPath id="330bd7be50"><path d="M 109.03125 57.035156 L 265.96875 57.035156 C 289.996094 57.035156 309.46875 76.511719 309.46875 100.535156 L 309.46875 274.464844 C 309.46875 298.488281 289.996094 317.964844 265.96875 317.964844 L 109.03125 317.964844 C 85.003906 317.964844 65.53125 298.488281 65.53125 274.464844 L 65.53125 100.535156 C 65.53125 76.511719 85.003906 57.035156 109.03125 57.035156 Z M 109.03125 57.035156 " clip-rule="nonzero"/></clipPath><clipPath id="875863b556"><path d="M 0.53125 0.0351562 L 244.46875 0.0351562 L 244.46875 261 L 0.53125 261 Z M 0.53125 0.0351562 " clip-rule="nonzero"/></clipPath><clipPath id="16ca07c9dc"><path d="M 44.03125 0.0351562 L 200.96875 0.0351562 C 224.996094 0.0351562 244.46875 19.511719 244.46875 43.535156 L 244.46875 217.464844 C 244.46875 241.488281 224.996094 260.964844 200.96875 260.964844 L 44.03125 260.964844 C 20.003906 260.964844 0.53125 241.488281 0.53125 217.464844 L 0.53125 43.535156 C 0.53125 19.511719 20.003906 0.0351562 44.03125 0.0351562 Z M 44.03125 0.0351562 " clip-rule="nonzero"/></clipPath><clipPath id="4e561d847e"><rect x="0" width="245" y="0" height="261"/></clipPath><clipPath id="a117a557d2"><path d="M 96.089844 137 L 264 137 L 264 264 L 96.089844 264 Z M 96.089844 137 " clip-rule="nonzero"/></clipPath><clipPath id="6f18700a4d"><path d="M 109 129.109375 L 205 129.109375 L 205 151 L 109 151 Z M 109 129.109375 " clip-rule="nonzero"/></clipPath><clipPath id="8c5cce7974"><path d="M 230.980469 116.882812 L 275.394531 116.882812 L 275.394531 161.292969 L 230.980469 161.292969 Z M 230.980469 116.882812 " clip-rule="nonzero"/></clipPath><clipPath id="85139c7bca"><path d="M 253.1875 116.882812 C 240.925781 116.882812 230.980469 126.824219 230.980469 139.085938 C 230.980469 151.351562 240.925781 161.292969 253.1875 161.292969 C 265.453125 161.292969 275.394531 151.351562 275.394531 139.085938 C 275.394531 126.824219 265.453125 116.882812 253.1875 116.882812 Z M 253.1875 116.882812 " clip-rule="nonzero"/></clipPath><clipPath id="b2492e77f9"><path d="M 0.980469 0.882812 L 45.394531 0.882812 L 45.394531 45.292969 L 0.980469 45.292969 Z M 0.980469 0.882812 " clip-rule="nonzero"/></clipPath><clipPath id="9deadfbb8a"><path d="M 23.1875 0.882812 C 10.925781 0.882812 0.980469 10.824219 0.980469 23.085938 C 0.980469 35.351562 10.925781 45.292969 23.1875 45.292969 C 35.453125 45.292969 45.394531 35.351562 45.394531 23.085938 C 45.394531 10.824219 35.453125 0.882812 23.1875 0.882812 Z M 23.1875 0.882812 " clip-rule="nonzero"/></clipPath><clipPath id="bad8f472f0"><rect x="0" width="46" y="0" height="46"/></clipPath><clipPath id="0fa719e83c"><path d="M 238.78125 127 L 267.28125 127 L 267.28125 154.429688 L 238.78125 154.429688 Z M 238.78125 127 " clip-rule="nonzero"/></clipPath><clipPath id="32a8a9eaf6"><path d="M 246 123.679688 L 261 123.679688 L 261 154.429688 L 246 154.429688 Z M 246 123.679688 " clip-rule="nonzero"/></clipPath></defs><g clip-path="url(#d7a218436e)"><g clip-path="url(#330bd7be50)"><g transform="matrix(1, 0, 0, 1, 65, 57)"><g clip-path="url(#4e561d847e)"><g clip-path="url(#875863b556)"><g clip-path="url(#16ca07c9dc)"><path fill="#1e40af" d="M 0.53125 0.0351562 L 244.46875 0.0351562 L 244.46875 261.128906 L 0.53125 261.128906 Z M 0.53125 0.0351562 " fill-opacity="1" fill-rule="nonzero"/></g></g></g></g></g></g><g clip-path="url(#a117a557d2)"><path fill="#ffffff" d="M 102.011719 167.03125 C 101.3125 167.03125 100.75 167.59375 100.75 168.296875 L 100.75 258.050781 C 100.75 258.742188 101.3125 259.316406 102.011719 259.316406 L 257.882812 259.316406 C 258.585938 259.316406 259.148438 258.742188 259.148438 258.050781 L 259.148438 143.289062 C 259.148438 142.589844 258.585938 142.027344 257.882812 142.027344 L 214.144531 142.027344 L 191.449219 164.726562 C 189.96875 166.210938 187.992188 167.03125 185.890625 167.03125 Z M 257.882812 263.976562 L 102.011719 263.976562 C 98.746094 263.976562 96.089844 261.316406 96.089844 258.050781 L 96.089844 168.296875 C 96.089844 165.027344 98.746094 162.371094 102.011719 162.371094 L 185.890625 162.371094 C 186.746094 162.371094 187.554688 162.035156 188.15625 161.433594 L 212.214844 137.367188 L 257.882812 137.367188 C 261.152344 137.367188 263.808594 140.023438 263.808594 143.289062 L 263.808594 258.050781 C 263.808594 261.316406 261.152344 263.976562 257.882812 263.976562 " fill-opacity="1" fill-rule="nonzero"/></g><g clip-path="url(#6f18700a4d)"><path fill="#ffffff" d="M 114.105469 146.273438 L 172.113281 146.273438 L 160.75 135.066406 C 160.140625 134.472656 159.347656 134.144531 158.492188 134.144531 L 115.378906 134.144531 C 114.679688 134.144531 114.105469 134.71875 114.105469 135.410156 Z M 204.269531 150.933594 L 109.445312 150.933594 L 109.445312 135.410156 C 109.445312 132.144531 112.113281 129.488281 115.378906 129.488281 L 158.492188 129.488281 C 160.578125 129.488281 162.53125 130.289062 164.015625 131.742188 L 178.746094 146.273438 L 204.269531 146.273438 L 204.269531 150.933594 " fill-opacity="1" fill-rule="nonzero"/></g><path fill="#ffffff" d="M 114.105469 164.699219 L 109.445312 164.699219 L 109.445312 148.605469 L 114.105469 148.605469 L 114.105469 164.699219 " fill-opacity="1" fill-rule="nonzero"/><g clip-path="url(#8c5cce7974)"><g clip-path="url(#85139c7bca)"><g transform="matrix(1, 0, 0, 1, 230, 116)"><g clip-path="url(#bad8f472f0)"><g clip-path="url(#b2492e77f9)"><g clip-path="url(#9deadfbb8a)"><path fill="#22c55e" d="M 0.980469 0.882812 L 45.394531 0.882812 L 45.394531 45.292969 L 0.980469 45.292969 Z M 0.980469 0.882812 " fill-opacity="1" fill-rule="nonzero"/></g></g></g></g></g></g><g clip-path="url(#0fa719e83c)"><path fill="#22c55e" d="M 242.214844 127.371094 L 254.925781 127.371094 L 244.644531 140.6875 C 244.195312 141.269531 244.121094 142.007812 244.445312 142.667969 C 244.769531 143.328125 245.398438 143.71875 246.132812 143.71875 L 249.386719 143.71875 L 247.882812 149.191406 L 242.53125 149.191406 L 238.863281 154.171875 C 238.863281 146.355469 238.863281 138.539062 238.863281 130.722656 C 238.863281 128.878906 240.371094 127.371094 242.214844 127.371094 Z M 260.757812 127.371094 L 264.203125 127.371094 C 266.046875 127.371094 267.554688 128.882812 267.554688 130.722656 L 267.554688 145.839844 C 267.554688 147.683594 266.046875 149.191406 264.203125 149.191406 L 254.59375 149.191406 L 261.800781 139.40625 C 262.230469 138.820312 262.292969 138.09375 261.964844 137.445312 C 261.636719 136.796875 261.011719 136.414062 260.285156 136.414062 L 257.300781 136.414062 L 260.757812 127.371094 " fill-opacity="1" fill-rule="evenodd"/></g><g clip-path="url(#32a8a9eaf6)"><path fill="#ff911d" d="M 246.132812 141.839844 L 251.851562 141.839844 L 248.386719 154.449219 L 260.285156 138.292969 L 254.566406 138.292969 L 260.164062 123.667969 L 246.132812 141.839844 " fill-opacity="1" fill-rule="evenodd"/></g></svg>