<svg xmlns="http://www.w3.org/2000/svg" xmlns:xlink="http://www.w3.org/1999/xlink" width="500" zoomAndPan="magnify" viewBox="0 0 375 374.999991" height="500" preserveAspectRatio="xMidYMid meet" version="1.0"><defs><clipPath id="806509ab1c"><path d="M 20.953125 9.351562 L 354.046875 9.351562 L 354.046875 365.871094 L 20.953125 365.871094 Z M 20.953125 9.351562 " clip-rule="nonzero"/></clipPath><clipPath id="d661e31967"><path d="M 64.453125 9.351562 L 310.546875 9.351562 C 322.085938 9.351562 333.148438 13.9375 341.308594 22.09375 C 349.464844 30.25 354.046875 41.316406 354.046875 52.851562 L 354.046875 322.148438 C 354.046875 333.683594 349.464844 344.75 341.308594 352.90625 C 333.148438 361.066406 322.085938 365.648438 310.546875 365.648438 L 64.453125 365.648438 C 52.914062 365.648438 41.851562 361.066406 33.691406 352.90625 C 25.535156 344.75 20.953125 333.683594 20.953125 322.148438 L 20.953125 52.851562 C 20.953125 41.316406 25.535156 30.25 33.691406 22.09375 C 41.851562 13.9375 52.914062 9.351562 64.453125 9.351562 Z M 64.453125 9.351562 " clip-rule="nonzero"/></clipPath><clipPath id="aef28e42fd"><path d="M 0.953125 0.351562 L 334.046875 0.351562 L 334.046875 356.761719 L 0.953125 356.761719 Z M 0.953125 0.351562 " clip-rule="nonzero"/></clipPath><clipPath id="c0c671da61"><path d="M 44.453125 0.351562 L 290.546875 0.351562 C 302.085938 0.351562 313.148438 4.9375 321.308594 13.09375 C 329.464844 21.25 334.046875 32.316406 334.046875 43.851562 L 334.046875 313.148438 C 334.046875 324.683594 329.464844 335.75 321.308594 343.90625 C 313.148438 352.066406 302.085938 356.648438 290.546875 356.648438 L 44.453125 356.648438 C 32.914062 356.648438 21.851562 352.066406 13.691406 343.90625 C 5.535156 335.75 0.953125 324.683594 0.953125 313.148438 L 0.953125 43.851562 C 0.953125 32.316406 5.535156 21.25 13.691406 13.09375 C 21.851562 4.9375 32.914062 0.351562 44.453125 0.351562 Z M 44.453125 0.351562 " clip-rule="nonzero"/></clipPath><clipPath id="3d828b017a"><rect x="0" width="335" y="0" height="357"/></clipPath><clipPath id="8fc84355b6"><path d="M 63.753906 117 L 292.503906 117 L 292.503906 291 L 63.753906 291 Z M 63.753906 117 " clip-rule="nonzero"/></clipPath><clipPath id="cd9f94e668"><path d="M 239.085938 72.660156 L 328.636719 72.660156 L 328.636719 162.210938 L 239.085938 162.210938 Z M 239.085938 72.660156 " clip-rule="nonzero"/></clipPath><clipPath id="aea91e73cc"><path d="M 283.859375 72.660156 C 259.132812 72.660156 239.085938 92.707031 239.085938 117.4375 C 239.085938 142.164062 259.132812 162.210938 283.859375 162.210938 C 308.589844 162.210938 328.636719 142.164062 328.636719 117.4375 C 328.636719 92.707031 308.589844 72.660156 283.859375 72.660156 Z M 283.859375 72.660156 " clip-rule="nonzero"/></clipPath><clipPath id="8bc6c393e6"><path d="M 0.0859375 0.660156 L 89.636719 0.660156 L 89.636719 90.210938 L 0.0859375 90.210938 Z M 0.0859375 0.660156 " clip-rule="nonzero"/></clipPath><clipPath id="3d76b2467d"><path d="M 44.859375 0.660156 C 20.132812 0.660156 0.0859375 20.707031 0.0859375 45.4375 C 0.0859375 70.164062 20.132812 90.210938 44.859375 90.210938 C 69.589844 90.210938 89.636719 70.164062 89.636719 45.4375 C 89.636719 20.707031 69.589844 0.660156 44.859375 0.660156 Z M 44.859375 0.660156 " clip-rule="nonzero"/></clipPath><clipPath id="eefd617566"><rect x="0" width="90" y="0" height="91"/></clipPath><clipPath id="2cf9f8add2"><path d="M 268 84.304688 L 300 84.304688 L 300 150.304688 L 268 150.304688 Z M 268 84.304688 " clip-rule="nonzero"/></clipPath></defs><g clip-path="url(#806509ab1c)"><g clip-path="url(#d661e31967)"><g transform="matrix(1, 0, 0, 1, 20, 9)"><g clip-path="url(#3d828b017a)"><g clip-path="url(#aef28e42fd)"><g clip-path="url(#c0c671da61)"><path fill="#1e40af" d="M 0.953125 0.351562 L 334.046875 0.351562 L 334.046875 356.871094 L 0.953125 356.871094 Z M 0.953125 0.351562 " fill-opacity="1" fill-rule="nonzero"/></g></g></g></g></g></g><g clip-path="url(#8fc84355b6)"><path fill="#ffffff" d="M 71.84375 158.398438 C 70.886719 158.398438 70.117188 159.167969 70.117188 160.125 L 70.117188 282.6875 C 70.117188 283.632812 70.886719 284.414062 71.84375 284.414062 L 284.6875 284.414062 C 285.644531 284.414062 286.414062 283.632812 286.414062 282.6875 L 286.414062 125.980469 C 286.414062 125.027344 285.644531 124.253906 284.6875 124.253906 L 224.957031 124.253906 L 193.96875 155.253906 C 191.945312 157.28125 189.25 158.398438 186.378906 158.398438 Z M 284.6875 290.777344 L 71.84375 290.777344 C 67.382812 290.777344 63.753906 287.148438 63.753906 282.6875 L 63.753906 160.125 C 63.753906 155.664062 67.382812 152.039062 71.84375 152.039062 L 186.378906 152.039062 C 187.546875 152.039062 188.652344 151.578125 189.472656 150.757812 L 222.324219 117.894531 L 284.6875 117.894531 C 289.148438 117.894531 292.773438 121.523438 292.773438 125.980469 L 292.773438 282.6875 C 292.773438 287.148438 289.148438 290.777344 284.6875 290.777344 " fill-opacity="1" fill-rule="nonzero"/></g><path fill="#ffffff" d="M 88.355469 130.058594 L 167.566406 130.058594 L 152.046875 114.75 C 151.214844 113.941406 150.132812 113.496094 148.964844 113.496094 L 90.097656 113.496094 C 89.140625 113.496094 88.355469 114.277344 88.355469 115.222656 Z M 211.476562 136.417969 L 81.996094 136.417969 L 81.996094 115.222656 C 81.996094 110.761719 85.636719 107.132812 90.097656 107.132812 L 148.964844 107.132812 C 151.8125 107.132812 154.484375 108.226562 156.507812 110.214844 L 176.625 130.058594 L 211.476562 130.058594 L 211.476562 136.417969 " fill-opacity="1" fill-rule="nonzero"/><path fill="#ffffff" d="M 88.355469 155.21875 L 81.996094 155.21875 L 81.996094 133.238281 L 88.355469 133.238281 L 88.355469 155.21875 " fill-opacity="1" fill-rule="nonzero"/><g clip-path="url(#cd9f94e668)"><g clip-path="url(#aea91e73cc)"><g transform="matrix(1, 0, 0, 1, 239, 72)"><g clip-path="url(#eefd617566)"><g clip-path="url(#8bc6c393e6)"><g clip-path="url(#3d76b2467d)"><path fill="#22c55e" d="M 0.0859375 0.660156 L 89.636719 0.660156 L 89.636719 90.210938 L 0.0859375 90.210938 Z M 0.0859375 0.660156 " fill-opacity="1" fill-rule="nonzero"/></g></g></g></g></g></g><path fill="#22c55e" d="M 260.265625 92.246094 L 287.605469 92.246094 L 265.492188 120.886719 C 264.523438 122.136719 264.367188 123.726562 265.0625 125.140625 C 265.761719 126.558594 267.113281 127.402344 268.691406 127.402344 L 275.6875 127.402344 L 272.453125 139.175781 L 260.949219 139.175781 L 253.0625 149.886719 C 253.0625 133.074219 253.0625 116.261719 253.0625 99.453125 C 253.0625 95.488281 256.300781 92.246094 260.265625 92.246094 Z M 300.152344 92.246094 L 307.558594 92.246094 C 311.519531 92.246094 314.761719 95.492188 314.761719 99.453125 L 314.761719 131.964844 C 314.761719 135.925781 311.519531 139.175781 307.558594 139.175781 L 286.890625 139.175781 L 302.386719 118.132812 C 303.316406 116.871094 303.445312 115.308594 302.738281 113.910156 C 302.035156 112.515625 300.695312 111.691406 299.132812 111.691406 L 292.710938 111.691406 L 300.152344 92.246094 " fill-opacity="1" fill-rule="evenodd"/><g clip-path="url(#2cf9f8add2)"><path fill="#ff911d" d="M 268.691406 123.359375 L 280.996094 123.359375 L 273.539062 150.484375 L 299.132812 115.730469 L 286.828125 115.730469 L 298.871094 84.277344 L 268.691406 123.359375 " fill-opacity="1" fill-rule="evenodd"/></g></svg>