<svg xmlns="http://www.w3.org/2000/svg" xmlns:xlink="http://www.w3.org/1999/xlink" width="500" zoomAndPan="magnify" viewBox="0 0 375 374.999991" height="500" preserveAspectRatio="xMidYMid meet" version="1.0"><defs><clipPath id="e0836fbfe9"><path d="M 20.953125 9.351562 L 354.046875 9.351562 L 354.046875 365.871094 L 20.953125 365.871094 Z M 20.953125 9.351562 " clip-rule="nonzero"/></clipPath><clipPath id="aec2ba1313"><path d="M 64.453125 9.351562 L 310.546875 9.351562 C 322.085938 9.351562 333.148438 13.933594 341.308594 22.09375 C 349.464844 30.25 354.046875 41.316406 354.046875 52.851562 L 354.046875 322.148438 C 354.046875 333.683594 349.464844 344.75 341.308594 352.90625 C 333.148438 361.0625 322.085938 365.648438 310.546875 365.648438 L 64.453125 365.648438 C 52.914062 365.648438 41.851562 361.0625 33.691406 352.90625 C 25.535156 344.75 20.953125 333.683594 20.953125 322.148438 L 20.953125 52.851562 C 20.953125 41.316406 25.535156 30.25 33.691406 22.09375 C 41.851562 13.933594 52.914062 9.351562 64.453125 9.351562 Z M 64.453125 9.351562 " clip-rule="nonzero"/></clipPath><clipPath id="fa9db4c47d"><path d="M 0.953125 0.351562 L 334.046875 0.351562 L 334.046875 356.761719 L 0.953125 356.761719 Z M 0.953125 0.351562 " clip-rule="nonzero"/></clipPath><clipPath id="968662c6ee"><path d="M 44.453125 0.351562 L 290.546875 0.351562 C 302.085938 0.351562 313.148438 4.933594 321.308594 13.09375 C 329.464844 21.25 334.046875 32.316406 334.046875 43.851562 L 334.046875 313.148438 C 334.046875 324.683594 329.464844 335.75 321.308594 343.90625 C 313.148438 352.0625 302.085938 356.648438 290.546875 356.648438 L 44.453125 356.648438 C 32.914062 356.648438 21.851562 352.0625 13.691406 343.90625 C 5.535156 335.75 0.953125 324.683594 0.953125 313.148438 L 0.953125 43.851562 C 0.953125 32.316406 5.535156 21.25 13.691406 13.09375 C 21.851562 4.933594 32.914062 0.351562 44.453125 0.351562 Z M 44.453125 0.351562 " clip-rule="nonzero"/></clipPath><clipPath id="f426f3672e"><rect x="0" width="335" y="0" height="357"/></clipPath><clipPath id="edb2e5050f"><path d="M 63.753906 117 L 292.503906 117 L 292.503906 291 L 63.753906 291 Z M 63.753906 117 " clip-rule="nonzero"/></clipPath><clipPath id="f4136ef2eb"><path d="M 247.949219 89.921875 L 308.59375 89.921875 L 308.59375 150.566406 L 247.949219 150.566406 Z M 247.949219 89.921875 " clip-rule="nonzero"/></clipPath><clipPath id="a6176de98a"><path d="M 278.273438 89.921875 C 261.527344 89.921875 247.949219 103.496094 247.949219 120.242188 C 247.949219 136.988281 261.527344 150.566406 278.273438 150.566406 C 295.019531 150.566406 308.59375 136.988281 308.59375 120.242188 C 308.59375 103.496094 295.019531 89.921875 278.273438 89.921875 Z M 278.273438 89.921875 " clip-rule="nonzero"/></clipPath><clipPath id="6ed3d1278f"><path d="M 0.949219 0.921875 L 61.59375 0.921875 L 61.59375 61.566406 L 0.949219 61.566406 Z M 0.949219 0.921875 " clip-rule="nonzero"/></clipPath><clipPath id="fdd7d58c91"><path d="M 31.273438 0.921875 C 14.527344 0.921875 0.949219 14.496094 0.949219 31.242188 C 0.949219 47.988281 14.527344 61.566406 31.273438 61.566406 C 48.019531 61.566406 61.59375 47.988281 61.59375 31.242188 C 61.59375 14.496094 48.019531 0.921875 31.273438 0.921875 Z M 31.273438 0.921875 " clip-rule="nonzero"/></clipPath><clipPath id="1c7166ea92"><rect x="0" width="62" y="0" height="62"/></clipPath><clipPath id="72b555bd0a"><path d="M 258.601562 104 L 297.601562 104 L 297.601562 141 L 258.601562 141 Z M 258.601562 104 " clip-rule="nonzero"/></clipPath><clipPath id="ca68f686a9"><path d="M 268 99.203125 L 288 99.203125 L 288 141.203125 L 268 141.203125 Z M 268 99.203125 " clip-rule="nonzero"/></clipPath></defs><g clip-path="url(#e0836fbfe9)"><g clip-path="url(#aec2ba1313)"><g transform="matrix(1, 0, 0, 1, 20, 9)"><g clip-path="url(#f426f3672e)"><g clip-path="url(#fa9db4c47d)"><g clip-path="url(#968662c6ee)"><path fill="#2563eb" d="M 0.953125 0.351562 L 334.046875 0.351562 L 334.046875 356.871094 L 0.953125 356.871094 Z M 0.953125 0.351562 " fill-opacity="1" fill-rule="nonzero"/></g></g></g></g></g></g><g clip-path="url(#edb2e5050f)"><path fill="#ffffff" d="M 71.84375 158.398438 C 70.886719 158.398438 70.117188 159.167969 70.117188 160.125 L 70.117188 282.6875 C 70.117188 283.632812 70.886719 284.414062 71.84375 284.414062 L 284.6875 284.414062 C 285.644531 284.414062 286.414062 283.632812 286.414062 282.6875 L 286.414062 125.980469 C 286.414062 125.027344 285.644531 124.253906 284.6875 124.253906 L 224.957031 124.253906 L 193.96875 155.253906 C 191.945312 157.28125 189.25 158.398438 186.378906 158.398438 Z M 284.6875 290.777344 L 71.84375 290.777344 C 67.382812 290.777344 63.753906 287.148438 63.753906 282.6875 L 63.753906 160.125 C 63.753906 155.664062 67.382812 152.039062 71.84375 152.039062 L 186.378906 152.039062 C 187.546875 152.039062 188.652344 151.578125 189.472656 150.757812 L 222.324219 117.894531 L 284.6875 117.894531 C 289.148438 117.894531 292.773438 121.523438 292.773438 125.980469 L 292.773438 282.6875 C 292.773438 287.148438 289.148438 290.777344 284.6875 290.777344 " fill-opacity="1" fill-rule="nonzero"/></g><path fill="#ffffff" d="M 88.355469 130.058594 L 167.566406 130.058594 L 152.046875 114.75 C 151.214844 113.941406 150.132812 113.496094 148.964844 113.496094 L 90.097656 113.496094 C 89.140625 113.496094 88.355469 114.277344 88.355469 115.222656 Z M 211.476562 136.417969 L 81.996094 136.417969 L 81.996094 115.222656 C 81.996094 110.761719 85.636719 107.132812 90.097656 107.132812 L 148.964844 107.132812 C 151.8125 107.132812 154.484375 108.226562 156.507812 110.214844 L 176.625 130.058594 L 211.476562 130.058594 L 211.476562 136.417969 " fill-opacity="1" fill-rule="nonzero"/><path fill="#ffffff" d="M 88.355469 155.21875 L 81.996094 155.21875 L 81.996094 133.238281 L 88.355469 133.238281 L 88.355469 155.21875 " fill-opacity="1" fill-rule="nonzero"/><g clip-path="url(#f4136ef2eb)"><g clip-path="url(#a6176de98a)"><g transform="matrix(1, 0, 0, 1, 247, 89)"><g clip-path="url(#1c7166ea92)"><g clip-path="url(#6ed3d1278f)"><g clip-path="url(#fdd7d58c91)"><path fill="#22c55e" d="M 0.949219 0.921875 L 61.59375 0.921875 L 61.59375 61.566406 L 0.949219 61.566406 Z M 0.949219 0.921875 " fill-opacity="1" fill-rule="nonzero"/></g></g></g></g></g></g><g clip-path="url(#72b555bd0a)"><path fill="#22c55e" d="M 263.289062 104.246094 L 280.648438 104.246094 L 266.609375 122.429688 C 265.992188 123.222656 265.894531 124.230469 266.335938 125.128906 C 266.777344 126.03125 267.636719 126.566406 268.640625 126.566406 L 273.082031 126.566406 L 271.027344 134.042969 L 263.722656 134.042969 L 258.714844 140.84375 C 258.714844 130.167969 258.714844 119.492188 258.714844 108.820312 C 258.714844 106.304688 260.773438 104.246094 263.289062 104.246094 Z M 288.613281 104.246094 L 293.320312 104.246094 C 295.832031 104.246094 297.894531 106.304688 297.894531 108.820312 L 297.894531 129.464844 C 297.894531 131.980469 295.832031 134.042969 293.320312 134.042969 L 280.195312 134.042969 L 290.035156 120.679688 C 290.625 119.878906 290.707031 118.886719 290.257812 118 C 289.8125 117.113281 288.960938 116.589844 287.96875 116.589844 L 283.890625 116.589844 L 288.613281 104.246094 " fill-opacity="1" fill-rule="evenodd"/></g><g clip-path="url(#ca68f686a9)"><path fill="#ff911d" d="M 268.640625 124 L 276.453125 124 L 271.71875 141.222656 L 287.96875 119.15625 L 280.15625 119.15625 L 287.804688 99.183594 L 268.640625 124 " fill-opacity="1" fill-rule="evenodd"/></g></svg>